<svg id="Layer_1" enable-background="new 0 0 512 512" height="512" viewBox="0 0 512 512" width="512" xmlns="http://www.w3.org/2000/svg"><g><g><g id="XMLID_596_"><g id="XMLID_597_"><g id="XMLID_598_"><g id="XMLID_599_"><g id="XMLID_600_"><g id="XMLID_604_"><g id="XMLID_605_"><g id="XMLID_606_"><g id="XMLID_607_"><g id="XMLID_608_"><g id="XMLID_609_"><g id="XMLID_610_"><g id="XMLID_611_"><g id="XMLID_612_"><circle id="XMLID_613_" cx="256" cy="256" fill="#71f4c3" r="256"/></g></g></g></g></g></g></g></g></g></g></g></g></g></g></g><path d="m512 256c0-25.699-3.804-50.507-10.85-73.91l-85.358-85.882s-125.343 37.48-188.551 85.885l-111.952-111.952-10.956 32.192-34.192 12.956 108.952 108.952c-48.405 63.208-82.885 191.551-82.885 191.551l85.136 85.136c23.62 7.191 48.684 11.072 74.656 11.072 141.385 0 256-114.615 256-256z" fill="#40c693"/><path d="" fill="#7c5149"/><g><ellipse cx="256" cy="256" fill="#fc445e" rx="225.98" ry="90.596" transform="matrix(.707 -.707 .707 .707 -106.039 256)"/><path d="m320.064 320.064c-3.946 3.946-8.408 7.997-13.279 12.106-60.231 50.714-184.604 109.595-210.576 83.622l319.583-319.584c25.972 25.972-32.909 150.345-83.622 210.576-4.109 4.872-8.16 9.334-12.106 13.28z" fill="#e80531"/><path d="m219.817 308.913-16.73-16.73c-14.65-14.65-14.65-38.623 0-53.273l35.822-35.822c14.65-14.65 38.623-14.65 53.273 0l16.73 16.73c14.65 14.65 14.65 38.623 0 53.273l-35.822 35.822c-14.649 14.65-38.622 14.65-53.273 0z" fill="#7c5149"/><path d="m308.913 273.091-35.822 35.822c-14.651 14.651-38.622 14.651-53.273 0l-8.365-8.365 89.095-89.095 8.365 8.365c14.651 14.651 14.651 38.622 0 53.273z" fill="#633a35"/><g><path d="m89.176 238.049h333.647v35.902h-333.647z" fill="#fff" transform="matrix(-.707 -.707 .707 -.707 256 618.039)"/><path d="m297.03 231.57h35.9v166.82h-35.9z" fill="#eaeaea" transform="matrix(.707 -.707 .707 .707 -130.469 314.98)"/><g><path d="m441.859 396.711-32.575-32.575c-5.675-5.675-12.961-9.465-20.866-10.855l-11.83-2.079-25.387 25.387 2.079 11.83c1.389 7.905 5.179 15.19 10.855 20.866l32.575 32.575z" fill="#f99030"/><path d="m70.141 115.289 32.575 32.575c5.675 5.675 12.961 9.465 20.866 10.855l11.83 2.079 25.387-25.387-2.079-11.83c-1.389-7.905-5.179-15.19-10.855-20.866l-32.575-32.575z" fill="#ffcc3b"/></g></g></g></g></svg>